<svg width="22" height="22" viewBox="0 0 22 22" fill="none" xmlns="http://www.w3.org/2000/svg">
<g clipPath="url(#clip0)">
<path d="M21.8598 6.08293C22.0433 5.89301 22.038 5.59031 21.8481 5.40684C21.6627 5.2279 21.369 5.2279 21.1837 5.40684L11.0024 15.5872L0.82205 5.4059C0.638582 5.21598 0.335926 5.21073 0.145958 5.39415C-0.0439644 5.57762 -0.0492077 5.88028 0.134214 6.07025C0.138069 6.07424 0.14197 6.07814 0.145958 6.08199L10.6649 16.6009C10.8515 16.7875 11.1542 16.7875 11.3409 16.6009L21.8598 6.08293Z" fill="#222"/>
<path d="M0.00542831 5.74438C0.00493431 5.48032 0.218658 5.26587 0.482721 5.26538C0.610023 5.26516 0.732172 5.31572 0.82209 5.40586L11.0025 15.5872L21.1828 5.40586C21.3698 5.2189 21.6729 5.2189 21.8598 5.40586C22.0468 5.59283 22.0468 5.89593 21.8598 6.0829L11.3409 16.6018C11.1542 16.7884 10.8516 16.7884 10.6648 16.6018L0.145998 6.0829C0.0560341 5.99325 0.00542831 5.87141 0.00542831 5.74438Z" fill="#222"/>
</g>
<defs>
<clipPath id="clip0">
<rect width="22" height="22" fill="white" transform="translate(22 0.000854492) rotate(90)"/>
</clipPath>
</defs>
</svg>
