<svg width="119" height="37" viewBox="0 0 119 37" fill="none" xmlns="http://www.w3.org/2000/svg">
<path d="M3.12 11.06L3.18 9.68C2.36 9.78 1.75 9.68 1.35 9.38C0.97 9.06 0.78 8.54 0.78 7.82C0.76 6.3 1.97 4.97 4.41 3.83C6.85 2.67 9.51 2.09 12.39 2.09C13.75 2.09 14.79 2.34 15.51 2.84C16.25 3.32 16.62 4.03 16.62 4.97C16.62 6.13 16.07 7.27 14.97 8.39C13.87 9.49 11.61 10.81 8.19 12.35C11.03 14.13 13.43 16.28 15.39 18.8C17.35 21.32 18.33 23.36 18.33 24.92C18.33 25.62 18.14 26.14 17.76 26.48C17.38 26.82 16.91 26.99 16.35 26.99C15.91 26.99 15.55 26.88 15.27 26.66C15.01 26.46 14.64 25.88 14.16 24.92L13.47 23.54C12.71 22.06 11.81 20.72 10.77 19.52C9.73 18.32 8.44 17.17 6.9 16.07C6.76 19.29 6.68 21.01 6.66 21.23C6.66 21.45 6.63 21.85 6.57 22.43C6.55 22.49 6.54 22.53 6.54 22.55C6.54 22.57 6.55 22.59 6.57 22.61C6.57 22.69 6.68 22.9 6.9 23.24C7.14 23.58 7.26 23.97 7.26 24.41C7.26 24.89 7.07 25.25 6.69 25.49C6.33 25.73 5.76 25.85 4.98 25.85C4.14 25.85 3.58 25.61 3.3 25.13C3.02 24.65 2.9 23.86 2.94 22.76L2.97 21.65C3.03 18.77 3.06 17.04 3.06 16.46C3.08 15.88 3.08 15.27 3.06 14.63C2.52 14.35 2.17 14.1 2.01 13.88C1.85 13.64 1.77 13.33 1.77 12.95C1.75 12.63 1.87 12.3 2.13 11.96C2.41 11.6 2.74 11.3 3.12 11.06ZM6.9 6.83V9.47C8.94 8.49 10.44 7.69 11.4 7.07C12.38 6.45 12.87 5.98 12.87 5.66C12.87 5.6 12.79 5.55 12.63 5.51C12.49 5.45 12.31 5.42 12.09 5.42C11.43 5.44 10.63 5.58 9.69 5.84C8.75 6.1 7.82 6.43 6.9 6.83ZM28.6385 23.18C27.9785 23.94 27.0285 24.59 25.7885 25.13C24.5685 25.67 23.4685 25.94 22.4885 25.94C20.9885 25.94 19.7785 25.46 18.8585 24.5C17.9585 23.54 17.5085 22.15 17.5085 20.33C17.5085 17.93 18.2185 15.85 19.6385 14.09C21.0585 12.31 22.6285 11.42 24.3485 11.42C25.0685 11.42 25.6885 11.64 26.2085 12.08C26.7285 12.5 26.9885 13.03 26.9885 13.67C26.9685 14.55 26.5185 15.63 25.6385 16.91C24.7785 18.17 23.4085 19.71 21.5285 21.53C21.7485 21.97 21.9685 22.26 22.1885 22.4C22.4285 22.54 22.7385 22.61 23.1185 22.61C23.5985 22.61 24.1385 22.51 24.7385 22.31C25.3585 22.11 26.1785 21.71 27.1985 21.11C27.7185 20.81 28.1785 20.78 28.5785 21.02C28.9785 21.24 29.1785 21.61 29.1785 22.13C29.1785 22.29 29.1385 22.45 29.0585 22.61C28.9785 22.77 28.8385 22.96 28.6385 23.18ZM22.6385 16.19L23.1785 15.5L23.5685 14.87C23.0885 14.81 22.5885 15.12 22.0685 15.8C21.5485 16.48 21.2885 17.14 21.2885 17.78C22.2485 16.64 22.7085 16.1 22.6685 16.16C22.6285 16.22 22.6185 16.23 22.6385 16.19ZM40.5827 23.45V23.96C40.5827 24.88 40.3927 25.56 40.0127 26C39.6527 26.46 39.1227 26.69 38.4227 26.69C37.9827 26.67 37.5727 26.52 37.1927 26.24C36.8327 25.96 36.6627 25.6 36.6827 25.16C35.8227 25.42 35.1027 25.61 34.5227 25.73C33.9427 25.83 33.4027 25.88 32.9027 25.88C31.6227 25.88 30.5627 25.57 29.7227 24.95C28.8827 24.33 28.4727 23.48 28.4927 22.4C28.4927 20.62 29.4027 19.04 31.2227 17.66C33.0427 16.28 34.9627 15.83 36.9827 16.31V15.32C36.9827 14.86 36.9127 14.56 36.7727 14.42C36.6527 14.28 36.4327 14.21 36.1127 14.21C35.7727 14.21 35.4127 14.29 35.0327 14.45C34.6527 14.61 33.7727 15.19 32.3927 16.19C31.6527 16.73 31.0027 16.89 30.4427 16.67C29.9027 16.45 29.6427 15.98 29.6627 15.26C29.6427 14.32 30.4327 13.37 32.0327 12.41C33.6527 11.43 35.1527 10.94 36.5327 10.94C37.9727 10.96 39.0127 11.4 39.6527 12.26C40.3127 13.1 40.6527 14.46 40.6727 16.34V20.18C41.0527 20.32 41.3627 20.55 41.6027 20.87C41.8427 21.17 41.9627 21.48 41.9627 21.8C41.9627 22.12 41.8727 22.4 41.6927 22.64C41.5327 22.86 41.1627 23.13 40.5827 23.45ZM36.8027 21.65V21.41C36.8027 20.47 36.6827 19.91 36.4427 19.73C36.2227 19.53 35.8727 19.43 35.3927 19.43C34.6327 19.43 33.9127 19.71 33.2327 20.27C32.5727 20.83 32.2427 21.34 32.2427 21.8C32.2427 22.04 32.3227 22.24 32.4827 22.4C32.6627 22.54 32.9027 22.61 33.2027 22.61C33.7027 22.61 34.2727 22.53 34.9127 22.37C35.5727 22.21 36.2027 21.97 36.8027 21.65ZM54.3605 24.17C53.6005 24.87 52.7705 25.38 51.8705 25.7C50.9905 26.02 49.9705 26.18 48.8105 26.18C47.2705 26.18 45.9405 25.58 44.8205 24.38C43.7205 23.18 43.1705 21.7 43.1705 19.94C43.1705 17.54 43.9905 15.49 45.6305 13.79C47.2705 12.09 48.9905 11.23 50.7905 11.21C51.6305 11.21 52.3005 11.47 52.8005 11.99C53.3005 12.49 53.5605 13.08 53.5805 13.76C53.5805 14.16 53.4705 14.48 53.2505 14.72C53.0505 14.94 52.7705 15.05 52.4105 15.05C52.3905 15.07 52.3705 15.08 52.3505 15.08C52.3305 15.06 52.0805 14.95 51.6005 14.75C51.4805 14.71 51.3805 14.69 51.3005 14.69C51.2405 14.67 51.1805 14.65 51.1205 14.63C50.1405 14.63 49.2005 15.12 48.3005 16.1C47.4005 17.08 46.9505 18.26 46.9505 19.64C46.9505 20.72 47.2505 21.55 47.8505 22.13C48.4705 22.71 49.3105 23 50.3705 23C50.6705 23 50.9405 22.98 51.1805 22.94C51.4205 22.88 51.8705 22.68 52.5305 22.34C52.8705 22.18 53.1405 22.06 53.3405 21.98C53.5405 21.88 53.7005 21.83 53.8205 21.83C54.2005 21.83 54.5005 21.94 54.7205 22.16C54.9605 22.36 55.0805 22.63 55.0805 22.97C55.0805 23.15 55.0205 23.34 54.9005 23.54C54.8005 23.72 54.6205 23.93 54.3605 24.17ZM56.0801 9.8L55.9601 7.55C55.9201 6.91 56.0701 6.34 56.4101 5.84C56.7501 5.34 57.2301 5.08 57.8501 5.06C58.5301 5.08 59.0201 5.27 59.3201 5.63C59.6401 5.99 59.8001 6.69 59.8001 7.73V7.94L61.0901 7.31C62.4101 6.67 63.1001 6.35 63.1601 6.35C63.2201 6.33 63.2801 6.32 63.3401 6.32C63.7201 6.32 64.0201 6.4 64.2401 6.56C64.4801 6.72 64.6001 6.95 64.6001 7.25C64.6001 7.61 64.4701 7.94 64.2101 8.24C63.9501 8.52 63.3901 8.9 62.5301 9.38L59.9201 10.85L60.2801 13.55C60.9801 18.87 61.2201 21.48 61.0001 21.38C60.7801 21.26 60.7001 21.2 60.7601 21.2C60.9001 21.2 61.1901 20.95 61.6301 20.45C62.0701 19.95 62.4801 19.7 62.8601 19.7C63.3001 19.72 63.6701 19.83 63.9701 20.03C64.2901 20.23 64.4501 20.49 64.4501 20.81C64.4501 21.01 64.4001 21.2 64.3001 21.38C64.2201 21.54 63.9601 21.83 63.5201 22.25L62.7701 22.97C62.5501 23.17 62.2501 23.53 61.8701 24.05C61.4901 24.57 61.1701 24.99 60.9101 25.31C60.5701 25.71 60.1801 26 59.7401 26.18C59.3001 26.38 58.8501 26.49 58.3901 26.51C57.9301 26.51 57.5601 26.34 57.2801 26C57.0201 25.64 56.8901 25.19 56.8901 24.65C56.8901 24.35 56.8901 23.9 56.8901 23.3C56.9101 22.68 56.9201 22.22 56.9201 21.92C56.9201 21.4 56.9001 20.78 56.8601 20.06C56.8201 19.34 56.7501 18.14 56.6501 16.46L56.4101 12.95C56.0901 13.27 55.7401 13.55 55.3601 13.79C55.0001 14.01 54.7101 14.12 54.4901 14.12C54.0301 14.14 53.6701 14.05 53.4101 13.85C53.1301 13.63 52.9901 13.32 52.9901 12.92C53.0101 12.66 53.0901 12.39 53.2301 12.11C53.3701 11.83 54.3201 11.06 56.0801 9.8ZM69.57 7.76L71.52 6.92C77.92 4.16 82.38 2.41 84.9 1.67C87.44 0.929999 89.62 0.559999 91.44 0.559999C92.02 0.559999 92.43 0.629999 92.67 0.769999C92.91 0.889999 93.04 1.09 93.06 1.37C93.06 1.69 92.98 1.95 92.82 2.15C92.68 2.33 92.48 2.45 92.22 2.51L91.05 2.84C89.71 3.22 87.97 3.81 85.83 4.61C83.69 5.39 81.89 6.1 80.43 6.74C80.51 8.86 80.58 10.82 80.64 12.62C80.7 14.4 80.74 15.74 80.76 16.64C80.74 20.98 80.53 23.59 80.13 24.47C79.75 25.33 79.19 25.76 78.45 25.76C77.91 25.76 77.46 25.51 77.1 25.01C76.76 24.49 76.6 21.02 76.62 14.6V8.3C76.24 8.46 75.92 8.6 75.66 8.72C75.4 8.84 74.28 9.39 72.3 10.37L70.68 11.18C69.92 11.58 69.28 11.6 68.76 11.24C68.22 10.86 67.95 10.36 67.95 9.74C67.95 9.3 68.08 8.93 68.34 8.63C68.58 8.31 68.99 8.02 69.57 7.76ZM96.3673 18.92C96.3473 20.98 95.7773 22.7 94.6573 24.08C93.5373 25.46 92.2073 26.15 90.6673 26.15C89.1473 26.15 87.9173 25.45 86.9773 24.05C86.0573 22.63 85.5973 20.74 85.5973 18.38C85.5973 16.14 86.0773 14.37 87.0373 13.07C87.9973 11.75 89.3173 11.09 90.9973 11.09C92.7973 11.11 94.1373 11.84 95.0173 13.28C95.9173 14.72 96.3673 16.6 96.3673 18.92ZM92.9773 18.83C92.9773 17.37 92.8073 16.22 92.4673 15.38C92.1473 14.52 91.7573 14.09 91.2973 14.09C90.7373 14.09 90.2773 14.5 89.9173 15.32C89.5573 16.12 89.3773 17.19 89.3773 18.53C89.3773 19.63 89.5673 20.58 89.9473 21.38C90.3473 22.16 90.8073 22.55 91.3273 22.55C91.7473 22.55 92.1273 22.19 92.4673 21.47C92.8073 20.73 92.9773 19.85 92.9773 18.83ZM101.496 12.95L102.216 14.57C102.536 15.31 102.756 15.82 102.876 16.1C102.996 16.36 103.136 16.63 103.296 16.91C103.376 16.71 103.436 16.56 103.476 16.46C103.536 16.36 103.586 16.26 103.626 16.16C103.726 15.9 103.916 15.44 104.196 14.78C104.476 14.1 104.696 13.58 104.856 13.22L105.486 11.81C105.666 11.41 106.236 11.22 107.196 11.24C108.176 11.24 108.476 11.8 108.096 12.92L106.446 17.72C105.126 21.56 103.976 24.7 102.996 27.14C102.036 29.6 101.056 31.94 100.056 34.16L99.3956 35.6C99.2156 35.98 99.0156 36.25 98.7956 36.41C98.5756 36.59 98.3356 36.68 98.0756 36.68C97.6956 36.68 97.3656 36.54 97.0856 36.26C96.8056 36 96.6656 35.66 96.6656 35.24C96.6656 35.12 96.6856 35 96.7256 34.88C96.7456 34.76 97.9156 31.47 100.236 25.01L101.436 21.68C100.236 19.6 99.2856 17.82 98.5856 16.34C97.8856 14.86 97.5356 13.91 97.5356 13.49C97.5356 12.93 97.7456 12.46 98.1656 12.08C98.6056 11.7 99.0856 11.51 99.6056 11.51C99.9856 11.51 100.336 11.63 100.656 11.87C100.976 12.09 101.256 12.45 101.496 12.95ZM113.504 20.99L112.184 20.18C111.124 19.54 110.324 18.81 109.784 17.99C109.264 17.17 109.004 16.31 109.004 15.41C109.004 14.13 109.634 13.01 110.894 12.05C112.154 11.07 113.484 10.58 114.884 10.58C115.484 10.6 115.954 10.78 116.294 11.12C116.654 11.44 116.834 11.85 116.834 12.35C116.834 12.75 116.684 13.09 116.384 13.37C116.104 13.63 115.484 13.92 114.524 14.24C113.644 14.56 113.114 14.79 112.934 14.93C112.754 15.07 112.664 15.22 112.664 15.38C112.664 15.56 112.774 15.79 112.994 16.07C113.214 16.35 113.484 16.58 113.804 16.76L115.244 17.66C116.624 18.54 117.504 19.23 117.884 19.73C118.284 20.23 118.484 20.74 118.484 21.26C118.484 22.7 117.434 24.13 115.334 25.55C113.254 26.97 111.274 27.68 109.394 27.68C108.894 27.68 108.524 27.56 108.284 27.32C108.064 27.1 107.954 26.81 107.954 26.45C107.954 26.15 108.024 25.92 108.164 25.76C108.304 25.6 108.674 25.42 109.274 25.22L110.414 24.86C111.514 24.52 112.524 24.05 113.444 23.45C114.364 22.83 114.824 22.35 114.824 22.01C114.824 21.95 114.784 21.88 114.704 21.8C114.644 21.72 114.244 21.45 113.504 20.99Z" fill="#0096EA"/>
</svg>
